<svg xmlns="http://www.w3.org/2000/svg" xmlns:xlink="http://www.w3.org/1999/xlink" version="1.1" x="0px" y="0px" viewBox="0 0 100 125" enable-background="new 0 0 100 100" xml:space="preserve"><g><path d="M79.348,2.5H20.652c-4.529,0-8.213,3.685-8.213,8.213v78.574c0,4.527,3.684,8.212,8.213,8.212h58.696   c4.528,0,8.213-3.685,8.213-8.212V10.713C87.561,6.185,83.876,2.5,79.348,2.5z M86.394,89.288c0,3.885-3.161,7.046-7.046,7.046   H20.652c-3.885,0-7.046-3.161-7.046-7.046V10.713c0-3.886,3.161-7.046,7.046-7.046h58.696c3.885,0,7.046,3.16,7.046,7.046V89.288z"/><path d="M43.192,44.953c2.232,0.412,4.7,0.445,6.839,0.445c4.869,0,10.59-0.34,11.611-2.988c0.316-0.811,0.172-2.118,0.003-2.622   c-0.718-2.135-3.737-3.462-5.359-4.177c-0.119-0.053-0.269-0.108-0.44-0.173l-0.149-0.056c-0.921-0.34-2.315-0.853-2.513-1.606   c-0.28-1.067,0.403-1.956,1.078-2.833c0.262-0.343,0.512-0.668,0.7-1.004c0.75-1.337,1.306-3.062,1.414-4.394   c0.195-2.406-0.379-4.411-1.66-5.798c-1.123-1.221-2.711-1.866-4.591-1.866c-0.323,0-0.655,0.02-0.986,0.058   c-3.14,0.361-5.228,2.648-5.447,5.969c-0.178,2.605,0.552,4.992,2.231,7.297c0.105,0.146,0.215,0.283,0.316,0.414   c0.422,0.535,0.786,0.997,0.715,1.718c-0.091,0.929-1.016,1.282-1.756,1.563l-0.302,0.117c-0.892,0.358-1.863,0.896-2.397,1.192   l-0.131,0.072c-1.727,0.955-3.604,2.105-4.026,3.656c-0.296,1.095-0.208,1.994,0.268,2.752   C39.511,44.125,41.658,44.668,43.192,44.953z"/><path d="M72.799,60.109h-45.6c-1.289,0-2.337,1.048-2.337,2.336c0,1.289,1.048,2.338,2.337,2.338h45.6   c1.289,0,2.339-1.049,2.339-2.338C75.138,61.157,74.088,60.109,72.799,60.109z M72.799,63.908h-45.6   c-0.806,0-1.462-0.656-1.462-1.463c0-0.806,0.656-1.462,1.462-1.462h45.6c0.807,0,1.464,0.656,1.464,1.462   C74.263,63.251,73.606,63.908,72.799,63.908z"/><path d="M72.799,68.995h-45.6c-1.289,0-2.337,1.048-2.337,2.337s1.048,2.338,2.337,2.338h45.6c1.289,0,2.339-1.049,2.339-2.338   S74.088,68.995,72.799,68.995z M72.799,72.794h-45.6c-0.806,0-1.462-0.655-1.462-1.463c0-0.806,0.656-1.462,1.462-1.462h45.6   c0.807,0,1.464,0.656,1.464,1.462C74.263,72.139,73.606,72.794,72.799,72.794z"/><path d="M72.799,77.881h-45.6c-1.289,0-2.337,1.048-2.337,2.336c0,1.29,1.048,2.338,2.337,2.338h45.6   c1.289,0,2.339-1.048,2.339-2.338C75.138,78.929,74.088,77.881,72.799,77.881z M72.799,81.681h-45.6   c-0.806,0-1.462-0.657-1.462-1.464c0-0.806,0.656-1.461,1.462-1.461h45.6c0.807,0,1.464,0.655,1.464,1.461   C74.263,81.024,73.606,81.681,72.799,81.681z"/></g><text x="0" y="115" fill="#000000" font-size="5px" font-weight="bold" font-family="'Helvetica Neue', Helvetica, Arial-Unicode, Arial, Sans-serif">Created by TukTuk Design</text><text x="0" y="120" fill="#000000" font-size="5px" font-weight="bold" font-family="'Helvetica Neue', Helvetica, Arial-Unicode, Arial, Sans-serif">from the Noun Project</text></svg>