<?xml version="1.0" encoding="utf-8"?>
<!-- Generator: Adobe Illustrator 16.0.1, SVG Export Plug-In . SVG Version: 6.00 Build 0)  -->
<!DOCTYPE svg PUBLIC "-//W3C//DTD SVG 1.1//EN" "http://www.w3.org/Graphics/SVG/1.1/DTD/svg11.dtd">
<svg version="1.1" id="Layer_1" xmlns="http://www.w3.org/2000/svg" xmlns:xlink="http://www.w3.org/1999/xlink" x="0px" y="0px"
	 width="100px" height="100px" viewBox="0 0 100 100" enable-background="new 0 0 100 100" xml:space="preserve">
<g>
	<polygon fill="#FFFFFF" points="1.932,33.664 1.932,60.55 28.877,47.106 	"/>
	<polygon fill="#FFFFFF" points="98.159,60.55 98.159,33.664 71.213,47.106 	"/>
	<path fill="#FFFFFF" d="M50.221,57.58l-0.07,0.141l-0.105-0.053l-0.105,0.053l-0.07-0.141l-16.347-8.156L1.932,65.188v12.584
		c0,1.649,1.337,2.986,2.986,2.986h90.254c1.65,0,2.987-1.337,2.987-2.986V65.186L66.566,49.425L50.221,57.58z"/>
	<polygon fill="#FFFFFF" points="49.94,57.721 50.045,57.668 49.87,57.58 	"/>
	<polygon fill="#FFFFFF" points="50.151,57.721 50.221,57.58 50.045,57.668 	"/>
	<path fill="#FFFFFF" d="M95.172,19.908H4.917c-1.649,0-2.986,1.337-2.986,2.987v6.131l31.591,15.762l4.646,2.317l11.876,5.927
		l11.875-5.927l4.646-2.317l31.593-15.761v-6.133C98.159,21.245,96.822,19.908,95.172,19.908z"/>
</g>
</svg>
