<?xml version="1.0" encoding="UTF-8"?>
<!-- Generator: Adobe Illustrator 15.0.2, SVG Export Plug-In . SVG Version: 6.00 Build 0)  -->
<!DOCTYPE svg PUBLIC "-//W3C//DTD SVG 1.1//EN" "http://www.w3.org/Graphics/SVG/1.1/DTD/svg11.dtd">
<svg xmlns="http://www.w3.org/2000/svg" xmlns:xlink="http://www.w3.org/1999/xlink" version="1.1" id="Layer_1" x="0px" y="0px" width="512px" height="512px" viewBox="0 0 512 512" enable-background="new 0 0 512 512" xml:space="preserve">
<path d="M256,0C114.612,0,0,114.612,0,256s114.612,256,256,256s256-114.612,256-256S397.388,0,256,0z M256,27.875  c125.987,0,228.125,102.138,228.125,228.125S381.987,484.125,256,484.125S27.881,381.987,27.881,256S130.013,27.875,256,27.875z   M142.769,94.682c-6.487,18.894-8.75,39.387-2.931,57.293c-7.025,7.781-12.476,16.744-16.369,26.882  c-10.394,32.844-7.856,74.85,14.9,100.243c8,8.788,18.855,15.976,32.5,21.625c13.644,5.65,31.206,9.25,52.644,10.801  c-14.4,6.737-24.55,10.85-28.081,25.725c-16.062,10.725-35.588,8.175-49.757-3.475c-11.188-8.2-16.269-22.676-28.656-28.062  c-0.781-0.788-3.212-1.338-7.3-1.75c-4.094-0.4-7.318,0.762-9.662,3.487c-1.163,1.149-1.088,2.412,0.281,3.774  c9.368,7.65,18.418,15.738,23.719,25.426c5.068,10.524,12.056,16.875,17.537,21.75c15.156,10.237,35.006,13.899,52.8,7.399  c-2.075,12.525,2.213,35.075-1.894,46.25c-1.562,3.125-3.8,5.851-6.719,8.2c-2.6,2.55-10.688,5.725-9.05,9.625  c0.781,1.75,3.493,2.825,8.175,3.225c10.318-0.274,22.006-4.449,28.05-12.574c2.15-2.926,4.644-6.726,4.644-11.4v-47.9  c0-5.462,1.994-9.324,4.338-11.699c2.344-2.325,4.469-4.125,8.463-4.676V408c0,5.45-6.694,20.662-7.5,22.2  c-1.781,3.024-5.763,5.774-5.838,9.337c0,1.188,0.425,1.863,1.794,2.038c10.25-0.438,18.662-6.463,22.831-14.913  c5.312-8.062,6.519-12.862,7.912-22.188V345.6H262.4v58.875c0,7.788-1.281,15.2,2.237,22.176  c3.513,7.024,14.263,11.524,22.438,13.475c4.3,1.175,6.45,1.625,8,1.438c1.562-0.188,1.875-0.862,1.675-2.037  c-0.925-3.525-5.925-6.562-8-9.325c-2.725-3.525-7.15-10.925-7.15-22.226V344.85c4.2,0.95,5.926,2.351,8.476,4.676  c2.524,2.35,4.325,6.237,4.325,11.699v47.9c0,4.675,3.375,8.475,5.524,11.4c6.525,8.3,17.5,12.524,27.775,12.574  c4.675-0.399,7.975-1.475,8.774-3.225c0.801-1.75,0.488-3.2-1.462-4.375c-1.938-1.175-4.237-2.925-7.188-5.25  c-2.925-2.325-5.062-5.075-6.65-8.2c-1.75-20.087-0.013-41.625-1.425-61.95c-2.8-22.175-11.325-29.5-28.35-38  c20.3-1.524,36.975-5.25,50.024-11.1c39.075-18.975,49.875-48.325,50.05-87.675c-0.625-25.331-7.925-47.4-24.6-64.319  c2.35-8.949,3.025-18.281,2.05-28.019c-0.962-9.743-3.024-18.524-6.149-26.318c-14.426,0.794-26.525,3.688-36.275,8.756  c-9.75,5.069-16.775,9.356-21.075,12.875c-34.537-7.844-71.544-7.888-104.693,1.163C183.744,103.6,162.737,95.875,142.769,94.682z" fill="#000000"/>
</svg>
