<?xml version="1.0" encoding="UTF-8" standalone="no"?>
<svg width="82px" height="91px" viewBox="0 0 82 91" version="1.1" xmlns="http://www.w3.org/2000/svg" xmlns:xlink="http://www.w3.org/1999/xlink" xmlns:sketch="http://www.bohemiancoding.com/sketch/ns">
    <!-- Generator: Sketch 3.3.3 (12072) - http://www.bohemiancoding.com/sketch -->
    <title>Shape</title>
    <desc>Created with Sketch.</desc>
    <defs>
        <filter x="-50%" y="-50%" width="200%" height="200%" filterUnits="objectBoundingBox" id="filter-1">
            <feOffset dx="0" dy="0" in="SourceAlpha" result="shadowOffsetOuter1"></feOffset>
            <feGaussianBlur stdDeviation="1" in="shadowOffsetOuter1" result="shadowBlurOuter1"></feGaussianBlur>
            <feColorMatrix values="0 0 0 0 0.592421344   0 0 0 0 0.592421344   0 0 0 0 0.592421344  0 0 0 0.35 0" in="shadowBlurOuter1" type="matrix" result="shadowMatrixOuter1"></feColorMatrix>
            <feMerge>
                <feMergeNode in="shadowMatrixOuter1"></feMergeNode>
                <feMergeNode in="SourceGraphic"></feMergeNode>
            </feMerge>
        </filter>
    </defs>
    <g id="Page-1" stroke="none" stroke-width="1" fill="none" fill-rule="evenodd" sketch:type="MSPage">
        <g id="logo2-[Converted]" sketch:type="MSLayerGroup" transform="translate(2.000000, 2.000000)" filter="url(#filter-1)" fill="#FFFFFF">
            <path d="M76.585,66.854 C67.289,58.427 15.964,11.906 3.794,0.876 C2.137,-0.626 1.173,-0.13 1.124,1.856 C1.022,5.994 0.85,12.934 0.764,16.399 C0.732,17.692 1.096,18.85 1.81,19.498 C9.935,26.863 61.838,72.95 75.526,85.357 C77.682,87.312 77.874,86.681 77.896,84.211 C77.934,79.804 77.991,73.101 78.018,69.938 C78.027,68.838 77.522,67.704 76.585,66.854 L76.585,66.854 Z" id="Shape" sketch:type="MSShapeGroup"></path>
        </g>
    </g>
</svg>